<?xml version="1.0" encoding="UTF-8"?><svg xmlns="http://www.w3.org/2000/svg" viewBox="0 0 18.99 16"><defs><style>.d{fill:none;stroke:#f5b10e;stroke-miterlimit:10;}</style></defs><g id="a"/><g id="b"><g id="c"><path class="d" d="M18.49,5.03c-.03,1.15-.4,2.18-1.2,3.01-2.21,2.31-4.42,4.61-6.64,6.91-.7,.73-1.61,.73-2.31,0-2.21-2.29-4.43-4.57-6.61-6.89C.55,6.8,.21,5.27,.75,3.62,1.3,1.94,2.5,.91,4.24,.59c1.55-.28,2.9,.2,4.03,1.31,.36,.35,.72,.7,1.06,1.07,.14,.15,.22,.14,.36,0,.45-.46,.89-.93,1.38-1.35,1.33-1.13,2.86-1.42,4.48-.82,1.62,.6,2.59,1.81,2.88,3.53,.04,.23,.06,.46,.06,.7Z"/></g></g></svg>