<?xml version="1.0" encoding="UTF-8"?><svg xmlns="http://www.w3.org/2000/svg" viewBox="0 0 15 15"><defs><style>.d{fill:#006837;}</style></defs><g id="a"/><g id="b"><g id="c"><g><path class="d" d="M14.61,11.07l-1.86-1.86c-.5-.5-1.37-.5-1.86,0l-.31,.31,3.73,3.73,.31-.31c.52-.52,.51-1.35,0-1.86Z"/><path class="d" d="M9.94,10.12c-.39,.3-.95,.29-1.31-.07l-3.69-3.69c-.36-.36-.37-.92-.07-1.31L1.15,1.33C-.45,3.2-.39,6.01,1.38,7.77l5.83,5.84c1.7,1.7,4.47,1.92,6.44,.23l-3.72-3.72Z"/><path class="d" d="M5.79,2.24L3.92,.37C3.42-.12,2.56-.12,2.06,.37l-.31,.31,3.73,3.73,.31-.31c.52-.52,.51-1.35,0-1.86Z"/></g></g></g></svg>