<?xml version="1.0" encoding="UTF-8"?><svg xmlns="http://www.w3.org/2000/svg" viewBox="0 0 15 12.42"><defs><style>.d{fill:#0c0d0d;}</style></defs><g id="a"/><g id="b"><g id="c"><g><path class="d" d="M1.03,4.1c-.14,0-.3,0-.45,0-.15,0-.24-.09-.24-.23,0-.15,.08-.23,.23-.24,0,0,.02,0,.03,0,.19-.03,.44,.1,.57-.07,.11-.14,.12-.36,.17-.55,.14-.58,.28-1.17,.43-1.75C1.96,.45,2.54,0,3.37,0c2.75,0,5.5,0,8.26,0,.83,0,1.41,.45,1.61,1.25,.18,.72,.36,1.43,.53,2.15,.04,.18,.11,.25,.29,.23,.12-.02,.25,0,.38,0,.16,0,.24,.09,.23,.24,0,.15-.09,.23-.24,.23-.16,0-.31,0-.46,0,.07,.62,.29,1.16,.66,1.64,.29,.38,.39,.81,.38,1.29-.02,1,0,2.01,0,3.02,0,.17,0,.34-.22,.38-.14,.02-.09,.13-.09,.21,0,.47,0,.94,0,1.41,0,.26-.1,.39-.38,.39-.75-.01-1.5-.01-2.25,0-.26,0-.38-.1-.38-.36,0-.27,0-.55,0-.82,0-.17,.06-.33,.25-.33,.19,0,.24,.17,.24,.34,0,.18,0,.35,0,.53,0,.13,.04,.17,.17,.17,.56,0,1.11,0,1.67,0,.14,0,.19-.04,.19-.18,0-.39,0-.78,0-1.17,0-.13-.03-.18-.16-.16-.05,0-.1,0-.15,0-4.25,0-8.51,0-12.76,0-.26,0-.33,.06-.31,.32,.02,.33,.01,.66,0,.99,0,.14,.02,.21,.19,.21,.56-.01,1.11,0,1.67,0,.13,0,.17-.04,.17-.17,0-.19,0-.39,0-.59,0-.15,.08-.28,.24-.28,.16,0,.24,.12,.25,.27,0,.32,.01,.64,0,.97,0,.18-.12,.27-.31,.27-.79,0-1.58,0-2.37,0-.25,0-.32-.14-.32-.35,0-.48,0-.96,0-1.43,0-.07,.05-.18-.06-.2-.28-.05-.25-.25-.25-.45,0-1.03,0-2.07,0-3.1,0-.37,.09-.71,.3-1.02,.37-.53,.69-1.08,.73-1.76ZM7.51,.48c-1.39,0-2.77,0-4.16,0-.59,0-.98,.31-1.12,.87-.14,.57-.27,1.15-.42,1.72-.29,1.11-.43,2.28-1.2,3.21-.11,.13-.13,.32-.13,.5,0,.99,0,1.97,0,2.96,0,.17,.06,.21,.22,.21,1.05,0,2.11,0,3.16,0,.16,0,.22-.06,.27-.2,.14-.38,.31-.75,.45-1.14,.07-.19,.18-.27,.39-.27,1.7,0,3.4,0,5.09,0,.19,0,.3,.07,.37,.25,.15,.39,.32,.77,.46,1.16,.05,.14,.12,.19,.27,.19,1.04,0,2.09,0,3.13,0,.2,0,.24-.06,.24-.25,0-.87-.02-1.74,0-2.6,0-.43-.09-.8-.33-1.15-.21-.3-.44-.59-.54-.96-.29-1.19-.59-2.37-.88-3.56-.17-.67-.51-.95-1.2-.95-1.36,0-2.71,0-4.07,0Zm-2.94,9.46h5.86c-.13-.33-.26-.65-.38-.96-.04-.11-.1-.14-.21-.14-1.56,0-3.12,0-4.67,0-.11,0-.17,.03-.21,.14-.12,.32-.25,.63-.38,.96Z"/><path class="d" d="M7.47,5.38c-1.73,0-3.45,0-5.18,0-.11,0-.21,0-.32-.03-.12-.02-.17-.12-.17-.24,0-.11,.06-.19,.17-.21,.09-.02,.19-.03,.29-.03,3.49,0,6.98,0,10.47,0,.1,0,.19,0,.29,.03,.11,.02,.16,.1,.17,.21,0,.12-.04,.21-.17,.24-.1,.02-.21,.03-.32,.03-1.74,0-3.49,0-5.23,0Z"/><path class="d" d="M1.71,8.74c-.15,0-.29,0-.44,0-.17,0-.31-.05-.31-.23,0-.19,.14-.26,.32-.25,.24,0,.49,0,.73,0,.52,0,.89-.34,.9-.8,0-.44-.35-.79-.85-.82-.21-.01-.43,0-.64,0-.16,0-.28-.07-.28-.23,0-.16,.11-.25,.26-.25,.29,0,.58-.03,.88,.02,.68,.12,1.15,.68,1.11,1.33-.03,.68-.54,1.18-1.24,1.23-.15,0-.29,0-.44,0h0Z"/><path class="d" d="M13.16,8.74c-.4,.03-.85-.02-1.19-.39-.34-.37-.46-.81-.3-1.3,.16-.47,.49-.76,.98-.86,.31-.07,.62-.03,.93-.04,.16,0,.27,.09,.27,.25,0,.16-.12,.23-.27,.23-.25,0-.51,0-.76,.02-.45,.05-.76,.42-.74,.83,.02,.44,.37,.77,.83,.77,.26,0,.53,0,.79,0,.18,0,.33,.06,.33,.25,0,.2-.16,.24-.33,.24-.16,0-.31,0-.54,0Z"/></g></g></g></svg>