<?xml version="1.0" encoding="UTF-8"?><svg xmlns="http://www.w3.org/2000/svg" viewBox="0 0 14.49 15"><defs><style>.d{fill:#121212;}</style></defs><g id="a"/><g id="b"><g id="c"><g><path class="d" d="M11.64,4.56c0,.87-.2,1.62-.56,2.34-.98,1.95-2.19,3.74-3.55,5.43-.21,.26-.35,.26-.56,0-1.39-1.7-2.6-3.51-3.58-5.48-.91-1.84-.67-4.02,.67-5.43C5.24,.18,6.7-.26,8.35,.15c1.64,.41,2.62,1.54,3.11,3.13,.14,.44,.2,.89,.18,1.28ZM7.1,.52c-1.01,.01-2.03,.44-2.78,1.38-1.14,1.44-1.28,3.03-.5,4.67,.88,1.84,2,3.53,3.28,5.12,.12,.15,.16,.16,.29,0,1.24-1.56,2.32-3.21,3.22-4.99,.49-.95,.64-1.94,.44-2.99-.36-1.87-1.89-3.17-3.95-3.19Z"/><path class="d" d="M7.28,15c-1.87-.03-3.69-.14-5.47-.65-.45-.13-.88-.29-1.27-.57-.73-.52-.72-1.13,.02-1.63,.58-.39,1.25-.57,1.92-.72,.71-.17,1.43-.26,2.16-.35,.18-.02,.37-.02,.39,.23,.02,.25-.18,.27-.35,.29-1.03,.11-2.04,.26-3.02,.59-.32,.11-.64,.24-.91,.45-.31,.24-.31,.44,0,.68,.36,.29,.8,.43,1.24,.56,1.76,.5,3.56,.61,5.38,.61,1.67,0,3.33-.12,4.95-.55,.38-.1,.77-.22,1.12-.41,.24-.13,.55-.24,.54-.55,0-.31-.31-.43-.55-.55-.61-.31-1.27-.47-1.94-.6-.56-.11-1.13-.19-1.7-.24-.17-.02-.34-.07-.31-.3,.02-.18,.15-.24,.32-.22,1.25,.15,2.51,.31,3.68,.82,.29,.12,.56,.28,.77,.51,.34,.36,.35,.78,0,1.14-.43,.44-.99,.64-1.56,.81-1.77,.52-3.6,.62-5.4,.65Z"/><path class="d" d="M7.25,6.51c-1.13,0-2.07-.95-2.04-2.07,.03-1.18,.99-2.09,2.14-2.02,.2,.01,.4,.07,.6,.12,.17,.05,.29,.16,.22,.35-.07,.18-.21,.18-.39,.13-.74-.22-1.34-.04-1.77,.52-.43,.56-.39,1.37,.08,1.94,.44,.53,1.24,.68,1.85,.36,.63-.33,.95-1.06,.77-1.75-.05-.2-.2-.45,.13-.52,.29-.07,.31,.21,.36,.39,.35,1.3-.62,2.55-1.96,2.55Z"/></g></g></g></svg>