<?xml version="1.0" encoding="UTF-8"?><svg xmlns="http://www.w3.org/2000/svg" viewBox="0 0 12.77 15"><defs><style>.d{fill:#121313;}</style></defs><g id="a"/><g id="b"><g id="c"><g><path class="d" d="M6.38,4.59c-1.89,0-3.79,0-5.68,0-.23,0-.3,.06-.29,.3,.02,.44,0,.88,0,1.32,0,.15,0,.31-.2,.31-.2,0-.21-.15-.21-.31,0-1.37,0-2.73,0-4.1,0-.62,.45-1.08,1.04-1.1,.21,0,.43-.02,.64,0,.21,.02,.26-.05,.26-.27,0-.52,.37-.83,.84-.72,.3,.07,.52,.33,.5,.67-.02,.29,.09,.32,.32,.32,1.87,0,3.73,0,5.6,0,.22,0,.3-.04,.29-.29-.02-.44,.25-.71,.67-.71,.41,0,.68,.26,.67,.7,0,.25,.06,.32,.29,.3,.26-.02,.52-.03,.77,.02,.55,.09,.87,.54,.87,1.17,0,3.31,0,6.61,0,9.92,0,.58,0,1.15,0,1.73,0,.7-.43,1.15-1.09,1.15-3.53,0-7.06,0-10.59,0-.64,0-1.08-.45-1.09-1.13,0-2.17,0-4.33,0-6.5,0-.16,0-.34,.21-.34,.22,0,.2,.18,.2,.34,0,1.81,0,3.63,0,5.44,0,.64,.21,.85,.82,.85,2.57,0,5.14,0,7.71,0,.53,0,.67-.14,.67-.71,0-.41,0-.82,0-1.23,0-.56,.38-.95,.91-.96,.42,0,.83,0,1.25,0,.43,0,.6-.18,.6-.64,0-1.77,0-3.53,0-5.3,0-.21-.06-.26-.25-.26-1.91,0-3.83,0-5.74,0Zm-.02-.43c1.91,0,3.82,0,5.73,0,.11,0,.27,.07,.27-.17,0-.62,0-1.25,0-1.87-.01-.4-.26-.64-.64-.65-.54,0-1.09,0-1.63,0-.06,0-.13-.02-.18,.05-.12,.2,.03,.74,.24,.82,.12,.04,.2,.12,.17,.25-.03,.15-.14,.19-.27,.18-.28-.02-.53-.28-.55-.6-.01-.16-.01-.33,0-.5,.01-.17-.04-.21-.2-.21-2.25,0-4.51,0-6.76,0-.06,0-.13-.03-.18,.04-.12,.18,.04,.75,.23,.82,.13,.05,.22,.12,.18,.27-.04,.15-.16,.17-.29,.16-.28-.03-.5-.3-.54-.61-.03-.23,.11-.53-.07-.66-.16-.11-.43-.03-.65-.03-.03,0-.06,0-.08,0-.49,0-.72,.25-.72,.77,0,.55,.01,1.09,0,1.64,0,.24,.06,.29,.28,.29,1.89,0,3.79,0,5.68,0ZM.44,13.93c.06,.45,.26,.63,.71,.63,3.49,0,6.98,0,10.47,0,.51,0,.74-.25,.74-.79,0-.66,0-1.33,0-1.99,0-.06,.04-.14-.06-.19-.67,.7-1.34,1.41-2.01,2.12-.26,.28-.56,.41-.94,.41-2.71,0-5.43,0-8.14,0-.26,0-.51-.03-.77-.19Zm11.58-2.72c-.5,0-.99,0-1.47,0-.25,0-.48,.11-.5,.4-.03,.56,0,1.13,0,1.7l1.98-2.1ZM2.56,1.01c.18,0,.34,.06,.32-.22-.02-.2-.06-.34-.28-.34-.2,0-.24,.14-.26,.33-.02,.25,.12,.23,.23,.22Zm7.61,0c.12,0,.28,.06,.26-.2-.01-.2-.04-.35-.26-.36-.22,0-.26,.14-.28,.34-.03,.28,.15,.2,.28,.21Z"/><path class="d" d="M6.4,6.78c-.95,.03-1.66,.49-2.04,1.39-.38,.89-.26,1.76,.35,2.5,.63,.76,1.43,.98,2.35,.7,.04-.01,.07-.02,.1-.04,.14-.06,.29-.08,.35,.1,.08,.21-.08,.27-.22,.33-1.47,.61-3.2-.4-3.52-2.06-.34-1.78,.97-3.44,2.7-3.36,1.1,.05,1.91,.64,2.33,1.71,.43,1.08,.23,2.07-.48,2.96-.1,.12-.22,.24-.37,.1-.15-.15-.04-.27,.06-.4,1.15-1.4,.51-3.48-1.2-3.88-.14-.03-.29-.03-.43-.05Z"/><path class="d" d="M6.17,8.39c0-.23,0-.47,0-.7,0-.16,.03-.31,.21-.31,.18,0,.22,.14,.22,.3,0,.4,0,.8,0,1.2,0,.16,.04,.27,.18,.35,.2,.12,.39,.26,.58,.4,.12,.08,.2,.19,.11,.34-.09,.14-.21,.12-.34,.04-.27-.19-.54-.38-.81-.56-.13-.08-.15-.2-.15-.35,0-.23,0-.47,0-.7Z"/></g></g></g></svg>